<?xml version="1.0" standalone="no"?>
<!DOCTYPE svg PUBLIC "-//W3C//DTD SVG 20010904//EN"
 "http://www.w3.org/TR/2001/REC-SVG-20010904/DTD/svg10.dtd">
<svg version="1.0" xmlns="http://www.w3.org/2000/svg"
 width="1701.000000pt" height="1701.000000pt" viewBox="0 0 1701.000000 1701.000000"
 preserveAspectRatio="xMidYMid meet">
<metadata>
Created by potrace 1.11, written by Peter Selinger 2001-2013
</metadata>
<g transform="translate(0.000000,1701.000000) scale(0.100000,-0.100000)"
fill="#000000" stroke="none">
<path d="M4696 13564 c-15 -14 -16 -421 -16 -4325 0 -4556 -2 -4328 40 -4389
21 -31 500 -862 500 -867 0 -4 6 -14 14 -22 7 -9 28 -43 46 -76 17 -33 35 -64
40 -70 6 -9 21 -34 74 -130 6 -11 19 -31 28 -45 9 -14 34 -59 56 -100 40 -73
56 -88 78 -72 8 6 70 110 162 272 8 14 25 43 38 65 13 22 29 51 36 65 7 14 24
43 37 65 29 45 34 55 81 140 18 33 39 67 46 76 8 8 14 20 14 25 0 5 15 32 33
59 17 28 38 61 44 75 7 14 17 32 23 40 5 8 81 137 167 285 l158 270 2 1754 c2
965 5 1756 7 1758 2 3 792 -783 1754 -1746 963 -963 1756 -1751 1764 -1751 40
0 2376 0 2391 0 15 0 16 3 5 17 -7 9 -984 989 -2170 2178 -1187 1188 -2158
2165 -2158 2170 0 9 1891 1901 3313 3315 392 390 527 530 525 545 -3 20 -11
20 -1178 23 -646 1 -1185 0 -1196 -3 -12 -2 -702 -685 -1533 -1516 -831 -832
-1514 -1510 -1516 -1507 -3 3 -5 769 -5 1702 0 1163 -3 1703 -10 1716 -10 20
-27 20 -845 20 -744 0 -835 -2 -849 -16z m829 -8642 c83 0 228 2 323 5 164 5
172 4 172 -14 0 -10 -45 -96 -100 -191 -55 -95 -100 -174 -100 -177 0 -2 -13
-23 -29 -47 -15 -24 -42 -68 -58 -98 -99 -181 -86 -170 -193 -170 -70 0 -90 3
-102 18 -12 14 -85 139 -275 469 -10 17 -37 64 -60 104 -68 114 -71 111 115
106 86 -3 225 -5 307 -5z"/>
</g>
</svg>
